<svg xmlns="http://www.w3.org/2000/svg" viewBox="0 0 192 192"><rect width="192" height="192" rx="42" fill="#7c3aed"/><g fill="none" stroke="#f5f3ff" stroke-width="8" stroke-linecap="round"><path d="M96 96c-22 0-30-26-52-26M96 96c-22 0-30 26-52 26M96 96c22 0 30-30 52-30M96 96c22 0 30 0 52 0M96 96c22 0 30 30 52 30"/></g><rect x="66" y="78" width="60" height="36" rx="18" fill="#f5f3ff"/><g fill="#f5f3ff"><circle cx="40" cy="70" r="8"/><circle cx="40" cy="122" r="8"/><circle cx="152" cy="66" r="8"/><circle cx="152" cy="96" r="8"/><circle cx="152" cy="126" r="8"/></g></svg>
